HIERARCHY
ROOT Hips
{
	OFFSET 48.983002 1.078935 95.459702
	CHANNELS 6 Xposition Yposition Zposition Xrotation Yrotation Zrotation
	JOINT spine
	{
		OFFSET 0.000000 -0.458068 7.965683
		CHANNELS 3 Xrotation Yrotation Zrotation
		JOINT spine1
		{
			OFFSET 0.000000 -0.000002 10.243103
			CHANNELS 3 Xrotation Yrotation Zrotation
			JOINT spine2
			{
				OFFSET 0.000000 -0.000002 9.814751
				CHANNELS 3 Xrotation Yrotation Zrotation
				JOINT Neck
				{
					OFFSET 0.000000 -1.201384 25.198601
					CHANNELS 3 Xrotation Yrotation Zrotation
					JOINT Head
					{
						OFFSET 0.000000 -0.000001 7.613144
						CHANNELS 3 Xrotation Yrotation Zrotation
						End Site
						{
							OFFSET 0.000000 6.077327 18.428101
						}
					}
				}
				JOINT RightShoulder
				{
					OFFSET -4.132698 0.575449 10.599205
					CHANNELS 3 Xrotation Yrotation Zrotation
					JOINT RightArm
					{
						OFFSET 0.000000 -0.000002 13.901794
						CHANNELS 3 Xrotation Yrotation Zrotation
						JOINT RightArmRoll
						{
							OFFSET 0.000000 -0.000001 7.017883
							CHANNELS 3 Xrotation Yrotation Zrotation
							JOINT RightForeArm
							{
								OFFSET 0.000000 -0.000003 20.440598
								CHANNELS 3 Xrotation Yrotation Zrotation
								JOINT RightForeArmRoll
								{
									OFFSET 0.000000 -0.000001 7.875153
									CHANNELS 3 Xrotation Yrotation Zrotation
									JOINT RightHand
									{
										OFFSET 0.000000 -0.000003 15.803696
										CHANNELS 3 Xrotation Yrotation Zrotation
										End Site
										{
											OFFSET 0.000000 0.000000 0.100006
										}
									}
								}
							}
						}
					}
				}
				JOINT LeftShoulder
				{
					OFFSET 4.132698 0.575449 10.599205
					CHANNELS 3 Xrotation Yrotation Zrotation
					JOINT LeftArm
					{
						OFFSET 0.000000 -0.000002 13.901794
						CHANNELS 3 Xrotation Yrotation Zrotation
						JOINT LeftArmRoll
						{
							OFFSET 0.000000 -0.000001 7.017883
							CHANNELS 3 Xrotation Yrotation Zrotation
							JOINT LeftForeArm
							{
								OFFSET 0.000000 -0.000003 20.440598
								CHANNELS 3 Xrotation Yrotation Zrotation
								JOINT LeftForeArmRoll
								{
									OFFSET 0.000000 -0.000001 7.875153
									CHANNELS 3 Xrotation Yrotation Zrotation
									JOINT LeftHand
									{
										OFFSET 0.000000 -0.000003 15.803696
										CHANNELS 3 Xrotation Yrotation Zrotation
										End Site
										{
											OFFSET 0.000000 0.000000 0.100006
										}
									}
								}
							}
						}
					}
				}
			}
		}
	}
	JOINT RightUpLeg
	{
		OFFSET -7.060478 1.086100 -1.294701
		CHANNELS 3 Xrotation Yrotation Zrotation
		JOINT RightUpLegRoll
		{
			OFFSET 0.000000 -0.000003 18.530800
			CHANNELS 3 Xrotation Yrotation Zrotation
			JOINT RightLeg
			{
				OFFSET 0.000000 0.000004 -22.947601
				CHANNELS 3 Xrotation Yrotation Zrotation
				JOINT RightLegRoll
				{
					OFFSET 0.000000 -0.000004 23.022598
					CHANNELS 3 Xrotation Yrotation Zrotation
					JOINT RightFoot
					{
						OFFSET 0.000000 -0.000003 19.162506
						CHANNELS 3 Xrotation Yrotation Zrotation
						JOINT RightToeBase
						{
							OFFSET 0.000000 -0.000003 16.018799
							CHANNELS 3 Xrotation Yrotation Zrotation
							End Site
							{
								OFFSET 0.006790 0.894205 7.757828
							}
						}
					}
				}
			}
		}
	}
	JOINT LeftUpLeg
	{
		OFFSET 7.060478 1.086100 -1.294701
		CHANNELS 3 Xrotation Yrotation Zrotation
		JOINT LeftUpLegRoll
		{
			OFFSET 0.000000 -0.000003 18.530899
			CHANNELS 3 Xrotation Yrotation Zrotation
			JOINT LeftLeg
			{
				OFFSET 0.000000 -0.000004 22.947502
				CHANNELS 3 Xrotation Yrotation Zrotation
				JOINT LeftLegRoll
				{
					OFFSET 0.000000 -0.000004 23.235504
					CHANNELS 3 Xrotation Yrotation Zrotation
					JOINT LeftFoot
					{
						OFFSET 0.000000 -0.000003 18.949600
						CHANNELS 3 Xrotation Yrotation Zrotation
						JOINT LeftToeBase
						{
							OFFSET 0.000000 -0.000002 16.018799
							CHANNELS 3 Xrotation Yrotation Zrotation
							End Site
							{
								OFFSET -0.030430 0.894205 7.757828
							}
						}
					}
				}
			}
		}
	}
}
MOTION
Frames: 6
Frame Time: 0.041667
49.399498 2.908910 95.621193 -2.937236 1.265037 -4.960366 -1.399140 -0.539349 -0.004612 1.205048 -1.063255 -0.017386 2.850241 -1.063383 -0.004646 29.345133 0.883548 15.565088 -12.744978 10.077838 15.601732 13.701308 -64.957449 14.688771 -17.656280 -104.378090 -40.814233 0.000001 -0.000001 -0.000001 61.110802 -16.242268 7.672966 -0.000001 0.000008 -3.012509 -5.000191 -7.998774 0.000061 0.305744 74.487489 1.495977 -52.137467 99.934704 77.957935 0.000000 0.000001 0.000000 63.797348 19.657295 -9.578814 0.000005 -0.000001 3.000000 -5.000247 7.999057 -0.000032 0.621029 -176.227213 -2.344375 179.999991 -0.000005 -1.138000 174.237620 -2.343116 -0.687390 0.000002 -0.000004 0.037175 69.309570 6.703919 2.599126 25.456923 -7.355055 0.000002 2.905967 171.996157 -1.584423 -0.000005 -0.000005 -1.230789 -7.613766 2.219875 0.352064 -0.000003 -0.000002 -0.191998 71.427803 -6.930620 -1.860754 25.548891 7.347620 -0.134450 
49.389397 2.908820 95.646294 -2.938741 1.270578 -4.968489 -1.399692 -0.540361 -0.004640 1.204599 -1.066384 -0.017922 2.849785 -1.066520 -0.005146 29.346864 0.899032 15.571653 -12.749970 10.075593 15.609851 13.721895 -64.972031 14.708981 -17.697018 -104.361384 -40.875633 0.000000 -0.000001 -0.000005 61.123786 -16.242747 7.677011 -0.000001 0.000009 -3.012511 -5.000189 -7.998776 0.000059 0.306912 74.488581 1.494819 -52.190510 99.930940 78.022303 0.000001 -0.000000 -0.000002 63.810107 19.656074 -9.579731 0.000002 -0.000000 3.000000 -5.000248 7.999056 -0.000030 0.625526 -176.238224 -2.349849 179.999991 -0.000004 -1.138000 174.237784 -2.344109 -0.687483 0.000002 -0.000004 0.037373 69.312937 6.704239 2.597481 25.456916 -7.355053 0.000002 2.910639 171.985215 -1.593618 -0.000005 -0.000004 -1.230789 -7.622880 2.221275 0.352204 -0.000003 -0.000003 -0.192516 71.437536 -6.930312 -1.860699 25.549397 7.347615 -0.135278 
49.374195 2.903201 95.637085 -2.940279 1.276100 -4.976521 -1.400205 -0.541292 -0.004679 1.204271 -1.069384 -0.018513 2.849468 -1.069527 -0.005700 29.349200 0.913830 15.578680 -12.755791 10.073802 15.618421 13.744379 -64.988376 14.730983 -17.740250 -104.342778 -40.939495 0.000000 -0.000001 -0.000004 61.137242 -16.243237 7.681229 0.000001 0.000007 -3.012510 -5.000188 -7.998777 0.000060 0.309533 74.489784 1.492104 -52.245708 99.926535 78.088665 0.000000 0.000000 -0.000001 63.823016 19.654884 -9.580866 0.000004 -0.000000 3.000000 -5.000249 7.999056 -0.000031 0.629582 -176.249234 -2.355314 179.999991 -0.000004 -1.138000 174.237197 -2.344107 -0.687507 0.000001 -0.000004 0.037566 69.316598 6.704470 2.596101 25.456919 -7.355054 0.000002 2.915087 171.974260 -1.602402 -0.000005 -0.000005 -1.230790 -7.632293 2.222346 0.352319 -0.000003 -0.000002 -0.193057 71.447781 -6.929925 -1.860698 25.549905 7.347613 -0.136015 
49.367897 2.899081 95.619896 -2.941856 1.281600 -4.984494 -1.400675 -0.542163 -0.004727 1.204041 -1.072293 -0.019140 2.849240 -1.072443 -0.006292 29.351932 0.928145 15.586080 -12.762135 10.072287 15.627346 13.768199 -65.005909 14.754230 -17.786043 -104.322288 -41.006198 0.000000 -0.000001 -0.000002 61.151141 -16.243684 7.685518 0.000002 0.000011 -3.012508 -5.000191 -7.998781 0.000060 0.313164 74.490972 1.488289 -52.302430 99.921665 78.156625 0.000001 -0.000001 0.000002 63.835863 19.653804 -9.582072 0.000004 -0.000001 3.000000 -5.000246 7.999053 -0.000031 0.633330 -176.260217 -2.360780 179.999991 -0.000004 -1.138000 174.236090 -2.344102 -0.687553 0.000001 -0.000004 0.037753 69.320334 6.704639 2.594805 25.456918 -7.355054 0.000002 2.919361 171.964301 -1.610834 -0.000005 -0.000005 -1.230790 -7.641894 2.223189 0.352415 -0.000003 -0.000002 -0.193614 71.458149 -6.929600 -1.860701 25.550201 7.347622 -0.136665 
49.361397 2.892543 95.624199 -2.943446 1.287091 -4.992436 -1.401134 -0.543002 -0.004780 1.203862 -1.075153 -0.019789 2.849063 -1.075310 -0.006907 29.354862 0.942187 15.593716 -12.768897 10.071046 15.636509 13.792753 -65.024091 14.778175 -17.831964 -104.301797 -41.073039 0.000001 -0.000002 -0.000003 61.165164 -16.244130 7.689734 0.000002 0.000009 -3.012509 -5.000195 -7.998771 0.000061 0.317380 74.492277 1.483859 -52.360155 99.916529 78.225501 -0.000000 0.000000 -0.000002 63.848731 19.652749 -9.583269 0.000002 0.000002 3.000002 -5.000249 7.999057 -0.000032 0.636901 -176.271227 -2.366249 179.999991 -0.000004 -1.138000 174.234656 -2.344096 -0.687611 0.000002 -0.000004 0.037938 69.324262 6.704747 2.593688 25.456921 -7.355055 0.000003 2.923561 171.953359 -1.619156 -0.000005 -0.000005 -1.230790 -7.651625 2.223901 0.352502 -0.000004 -0.000002 -0.194181 71.468723 -6.929235 -1.860682 25.550606 7.347616 -0.137288 
49.348698 2.880839 95.627190 -2.945028 1.292572 -5.000368 -1.401595 -0.543831 -0.004833 1.203703 -1.078002 -0.020443 2.848895 -1.078166 -0.007526 29.357888 0.956158 15.601395 -12.775758 10.069802 15.645696 13.817542 -65.042450 14.802345 -17.878013 -104.281320 -41.140005 0.000001 -0.000001 -0.000004 61.179398 -16.244524 7.694194 0.000000 0.000011 -3.012509 -5.000194 -7.998779 0.000057 0.321738 74.493567 1.479253 -52.418300 99.911310 78.294786 0.000000 -0.000000 0.000001 63.861613 19.651692 -9.584465 0.000003 -0.000001 3.000001 -5.000248 7.999055 -0.000033 0.640429 -176.281227 -2.371701 179.999991 -0.000005 -1.138000 174.233153 -2.345083 -0.687773 0.000002 -0.000004 0.038122 69.328196 6.704816 2.592563 25.456919 -7.355054 0.000002 2.927722 171.943401 -1.627393 -0.000005 -0.000005 -1.230790 -7.661377 2.224574 0.352585 -0.000003 -0.000003 -0.194749 71.479309 -6.928897 -1.860669 25.551010 7.347620 -0.137912 
